#tb 0: 1/25
0,          0,          0,        1,   829440, 0xffe884fb
0,          1,          1,        1,   829440, 0xfa3651f8
0,          2,          2,        1,   829440, 0x0f29ccb9
0,          3,          3,        1,   829440, 0xbc227bb0
